<svg width="211.04609374999998px" height="60.8px" xmlns="http://www.w3.org/2000/svg" viewBox="144.47695312500002 44.6 211.04609374999998 60.8" style="background: rgba(0, 0, 0, 0);" preserveAspectRatio="xMidYMid"><defs><filter id="editing-extrusion" x="-100%" y="-100%" width="300%" height="300%"><feFlood result="color1" flood-color="#cccccc"></feFlood><feConvolveMatrix order="2,2" divisor="1" kernelMatrix="1 0 0 1" in="SourceAlpha" result="extrude"></feConvolveMatrix><feComposite in="color1" in2="extrude" result="comp-extrude" operator="in"></feComposite><feOffset dx="1" dy="1" in="comp-extrude" result="offset-extrude"></feOffset><feMerge><feMergeNode in="offset-extrude"></feMergeNode><feMergeNode in="SourceGraphic"></feMergeNode></feMerge></filter></defs><g filter="url(#editing-extrusion)"><g transform="translate(180.29364532232285, 84.26000022888184)"><path d="M7.59-18.25L8.35-18.25L8.35-18.25Q8.74-18.25 9.02-18.16L9.02-18.16L9.02-18.16Q9.31-18.07 9.39-17.84L9.39-17.84L15.55-0.73L15.55-0.73Q15.63-0.52 15.63-0.39L15.63-0.39L15.63-0.39Q15.63 0.05 14.51 0.05L14.51 0.05L14.30 0.05L14.30 0.05Q13.91 0.05 13.62-0.04L13.62-0.04L13.62-0.04Q13.34-0.13 13.26-0.36L13.26-0.36L11.73-4.63L4.08-4.63L2.60-0.36L2.60-0.36Q2.52-0.13 2.24-0.04L2.24-0.04L2.24-0.04Q1.95 0.05 1.56 0.05L1.56 0.05L1.43 0.05L1.43 0.05Q0.31 0.05 0.31-0.39L0.31-0.39L0.31-0.39Q0.31-0.47 0.34-0.55L0.34-0.55L0.34-0.55Q0.36-0.62 0.39-0.75L0.39-0.75L6.55-17.84L6.55-17.84Q6.63-18.07 6.92-18.16L6.92-18.16L6.92-18.16Q7.20-18.25 7.59-18.25L7.59-18.25ZM7.98-15.86L7.98-15.86L7.93-15.86L7.93-15.86Q7.85-15.50 7.76-15.11L7.76-15.11L7.76-15.11Q7.67-14.72 7.54-14.35L7.54-14.35L4.81-6.60L11.02-6.60L8.29-14.35L8.29-14.35Q8.16-14.72 8.10-15.11L8.10-15.11L8.10-15.11Q8.03-15.50 7.98-15.86ZM37.21-18.25L37.36-18.25L37.36-18.25Q38.48-18.25 38.48-17.81L38.48-17.81L38.48-17.81Q38.48-17.78 38.45-17.65L38.45-17.65L38.45-17.65Q38.43-17.52 38.40-17.45L38.40-17.45L33.90-0.36L33.90-0.36Q33.85-0.13 33.55-0.04L33.55-0.04L33.55-0.04Q33.25 0.05 32.86 0.05L32.86 0.05L31.80 0.05L31.80 0.05Q31.41 0.05 31.11-0.04L31.11-0.04L31.11-0.04Q30.81-0.13 30.76-0.36L30.76-0.36L27.92-10.95L27.38-14.33L26.83-10.95L24.00-0.36L24.00-0.36Q23.95-0.13 23.65-0.04L23.65-0.04L23.65-0.04Q23.35 0.05 22.96 0.05L22.96 0.05L21.89 0.05L21.89 0.05Q21.50 0.05 21.20-0.04L21.20-0.04L21.20-0.04Q20.90-0.13 20.85-0.36L20.85-0.36L16.41-17.45L16.41-17.45Q16.38-17.52 16.35-17.63L16.35-17.63L16.35-17.63Q16.33-17.73 16.33-17.81L16.33-17.81L16.33-17.81Q16.33-18.25 17.45-18.25L17.45-18.25L17.71-18.25L17.71-18.25Q18.10-18.25 18.39-18.16L18.39-18.16L18.39-18.16Q18.69-18.07 18.75-17.84L18.75-17.84L22.05-5.04L22.05-5.04Q22.13-4.68 22.23-4.13L22.23-4.13L22.23-4.13Q22.33-3.59 22.41-3.12L22.41-3.12L22.41-3.12Q22.49-2.65 22.52-2.63L22.52-2.63L22.52-2.63Q22.67-3.25 22.83-3.87L22.83-3.87L22.83-3.87Q22.98-4.50 23.14-5.12L23.14-5.12L26.29-17.81L26.29-17.81Q26.34-18.07 26.62-18.16L26.62-18.16L26.62-18.16Q26.91-18.25 27.30-18.25L27.30-18.25L27.72-18.25L27.72-18.25Q28.11-18.25 28.39-18.16L28.39-18.16L28.39-18.16Q28.68-18.07 28.73-17.81L28.73-17.81L31.95-5.02L31.95-5.02Q32.06-4.58 32.16-4.00L32.16-4.00L32.16-4.00Q32.27-3.43 32.33-3.03L32.33-3.03L32.33-3.03Q32.40-2.63 32.40-2.63L32.40-2.63L32.40-2.63Q32.55-3.25 32.71-3.86L32.71-3.86L32.71-3.86Q32.86-4.47 33.02-5.10L33.02-5.10L36.17-17.84L36.17-17.84Q36.22-18.07 36.52-18.16L36.52-18.16L36.52-18.16Q36.82-18.25 37.21-18.25L37.21-18.25ZM48.67-18.25L48.88-18.25L48.88-18.25Q49.92-18.25 49.92-17.68L49.92-17.68L49.92-0.52L49.92-0.52Q49.92 0.05 48.88 0.05L48.88 0.05L48.67 0.05L48.67 0.05Q47.63 0.05 47.63-0.52L47.63-0.52L47.63-17.68L47.63-17.68Q47.63-18.25 48.67-18.25L48.67-18.25ZM55.74-18.20L60.40-18.20L60.40-18.20Q63.31-18.20 64.77-16.93L64.77-16.93L64.77-16.93Q66.22-15.65 66.22-13.60L66.22-13.60L66.22-13.60Q66.22-12.74 65.82-11.91L65.82-11.91L65.82-11.91Q65.42-11.08 64.77-10.47L64.77-10.47L64.77-10.47Q64.12-9.85 63.36-9.65L63.36-9.65L63.36-9.54L63.36-9.54Q63.36-9.54 63.73-9.43L63.73-9.43L63.73-9.43Q64.09-9.31 64.64-9.01L64.64-9.01L64.64-9.01Q65.18-8.71 65.73-8.22L65.73-8.22L65.73-8.22Q66.27-7.72 66.64-6.99L66.64-6.99L66.64-6.99Q67.00-6.27 67.00-5.23L67.00-5.23L67.00-5.23Q67.00-2.52 65.25-1.26L65.25-1.26L65.25-1.26Q63.49 0 60.22 0L60.22 0L55.74 0L55.74 0Q54.96 0 54.96-0.78L54.96-0.78L54.96-17.42L54.96-17.42Q54.96-18.20 55.74-18.20L55.74-18.20ZM60.61-8.37L60.61-8.37L57.25-8.37L57.25-1.98L61.05-1.98L61.05-1.98Q62.79-1.98 63.71-2.89L63.71-2.89L63.71-2.89Q64.64-3.80 64.64-5.33L64.64-5.33L64.64-5.33Q64.64-6.76 63.62-7.57L63.62-7.57L63.62-7.57Q62.61-8.37 60.61-8.37ZM60.16-16.22L60.16-16.22L57.25-16.22L57.25-10.35L60.27-10.35L60.27-10.35Q61.85-10.35 62.86-11.23L62.86-11.23L62.86-11.23Q63.86-12.12 63.86-13.39L63.86-13.39L63.86-13.39Q63.86-14.82 62.99-15.52L62.99-15.52L62.99-15.52Q62.11-16.22 60.16-16.22ZM75.14-18.20L87.33-18.20L87.33-18.20Q87.85-18.20 87.85-17.42L87.85-17.42L87.85-17.00L87.85-17.00Q87.85-16.22 87.33-16.22L87.33-16.22L82.42-16.22L82.42-0.52L82.42-0.52Q82.42 0.05 81.38 0.05L81.38 0.05L81.17 0.05L81.17 0.05Q80.13 0.05 80.13-0.52L80.13-0.52L80.13-16.22L75.14-16.22L75.14-16.22Q74.62-16.22 74.62-17.00L74.62-17.00L74.62-17.42L74.62-17.42Q74.62-18.20 75.14-18.20L75.14-18.20ZM97.86-18.36L97.86-18.36L97.86-18.36Q101.79-18.36 103.84-16.04L103.84-16.04L103.84-16.04Q105.90-13.73 105.90-9.15L105.90-9.15L105.90-9.15Q105.90-4.58 103.84-2.21L103.84-2.21L103.84-2.21Q101.79 0.16 97.86 0.16L97.86 0.16L97.86 0.16Q93.96 0.16 91.91-2.21L91.91-2.21L91.91-2.21Q89.86-4.58 89.86-9.15L89.86-9.15L89.86-9.15Q89.86-13.73 91.91-16.04L91.91-16.04L91.91-16.04Q93.96-18.36 97.86-18.36ZM97.86-16.38L97.86-16.38L97.86-16.38Q95.11-16.38 93.67-14.56L93.67-14.56L93.67-14.56Q92.22-12.74 92.22-9.15L92.22-9.15L92.22-9.15Q92.22-5.56 93.67-3.69L93.67-3.69L93.67-3.69Q95.11-1.82 97.86-1.82L97.86-1.82L97.86-1.82Q100.62-1.82 102.08-3.69L102.08-3.69L102.08-3.69Q103.53-5.56 103.53-9.15L103.53-9.15L103.53-9.15Q103.53-12.74 102.08-14.56L102.08-14.56L102.08-14.56Q100.62-16.38 97.86-16.38ZM116.87-18.36L116.87-18.36L116.87-18.36Q120.80-18.36 122.85-16.04L122.85-16.04L122.85-16.04Q124.90-13.73 124.90-9.15L124.90-9.15L124.90-9.15Q124.90-4.58 122.85-2.21L122.85-2.21L122.85-2.21Q120.80 0.16 116.87 0.16L116.87 0.16L116.87 0.16Q112.97 0.16 110.92-2.21L110.92-2.21L110.92-2.21Q108.86-4.58 108.86-9.15L108.86-9.15L108.86-9.15Q108.86-13.73 110.92-16.04L110.92-16.04L110.92-16.04Q112.97-18.36 116.87-18.36ZM116.87-16.38L116.87-16.38L116.87-16.38Q114.11-16.38 112.67-14.56L112.67-14.56L112.67-14.56Q111.23-12.74 111.23-9.15L111.23-9.15L111.23-9.15Q111.23-5.56 112.67-3.69L112.67-3.69L112.67-3.69Q114.11-1.82 116.87-1.82L116.87-1.82L116.87-1.82Q119.63-1.82 121.08-3.69L121.08-3.69L121.08-3.69Q122.54-5.56 122.54-9.15L122.54-9.15L122.54-9.15Q122.54-12.74 121.08-14.56L121.08-14.56L121.08-14.56Q119.63-16.38 116.87-16.38ZM129.95-18.25L130.16-18.25L130.16-18.25Q131.20-18.25 131.20-17.68L131.20-17.68L131.20-1.98L138.35-1.98L138.35-1.98Q138.87-1.98 138.87-1.20L138.87-1.20L138.87-0.78L138.87-0.78Q138.87 0 138.35 0L138.35 0L129.69 0L129.69 0Q128.91 0 128.91-0.78L128.91-0.78L128.91-17.68L128.91-17.68Q128.91-18.25 129.95-18.25L129.95-18.25Z" fill="#006fce"></path></g></g><style>text {
  font-size: 64px;
  font-family: Arial Black;
  dominant-baseline: central;
  text-anchor: middle;
}</style></svg>