<?xml version="1.0" encoding="UTF-8"?><svg id="Layer_1" xmlns="http://www.w3.org/2000/svg" viewBox="0 0 1193.69 747.03"><defs><style>.cls-1{fill:none;}.cls-2{fill:#fff;}</style></defs><rect class="cls-1" width="1193.69" height="747.03"/><path class="cls-2" d="M630.19,230.33c0-16.88,11.42-33.29,17.67-30.17,7.1,3.56-5.32,19.47-17.67,30.17m-77.81,6.17c0-13.58,13.41-39.41,21.61-36.69,9.67,3.22-8.02,29.27-21.61,36.69Zm-13.58,97.15c-6.17,.28-10.28-3.67-10.28-10.25,0-17.7,24.53-34.59,43.06-43.66-3.29,24.7-11.63,52.94-32.78,53.91Zm113.2-57.63c-13.98,0-24.7,10.3-24.7,22.64,0,10.3,6.17,18.52,14.41,18.52,2.89,0,5.75-1.64,5.75-5.35,0-5.35-7.09-6.65-6.54-14.66,.35-5.28,5.32-8.81,10.25-8.81,9.88,0,14.5,9.57,14.5,19.45-.42,15.23-11.62,25.83-24.79,25.83-17.29,0-28.39-16.47-28.39-34.18,0-26.34,17.28-36.63,26.33-39.1,.09,0,23.68,4.21,22.94-6.19-.32-4.56-7.12-6.31-12.05-6.52-5.47-.22-10.96,1.75-10.96,1.75-2.88-1.45-4.87-4.28-6.09-7.56,16.87-12.77,28.81-25.11,28.81-39.11,0-7.41-4.94-14-14.41-14-16.87,0-29.64,21.4-29.64,40.75,0,3.29,0,6.59,.83,9.47-10.7,7.82-18.66,12.67-33.07,21.32,0-1.81,.38-6.44,1.59-12.48,4.94-5.35,11.72-13.36,11.72-19.54,0-2.88-1.64-5.35-4.94-5.35-8.23,0-14.4,12.34-16.05,20.99-3.71,4.53-11.11,10.3-17.29,10.3-4.94,0-6.58-4.54-7-6.18,15.65-5.36,34.99-26.76,34.99-46.11,0-4.12-1.65-13.18-13.99-13.18-18.53,0-34.17,27.58-34.17,48.99-6.59,0-9.05-7-9.05-12.35s2.06-10.71,2.06-12.35-.83-3.71-3.3-3.71c-6.18,0-9.88,8.23-9.88,17.7,.42,13.17,9.06,21.41,20.59,22.23,1.65,7.82,8.65,15.23,17.29,15.23,5.36,0,11.94-1.64,16.47-5.76-.42,2.89-.82,5.35-1.24,7.82-18.11,9.47-31.28,16.06-43.22,26.75-9.46,8.65-14.82,20.17-14.82,29.24,0,12.35,7.82,23.86,23.87,23.86,18.94,0,33.34-15.22,40.34-36.22,3.3-9.88,4.62-24.25,5.44-37.43,18.94-10.7,27.92-16.9,37.78-23.9,1.24,2.06,2.49,3.71,4.12,4.94-8.64,4.53-29.22,17.29-29.22,47.33,0,21.41,14.41,45.28,42.81,45.28,23.46,0,39.52-19.33,39.52-37.86,0-16.88-9.47-32.52-27.59-32.52Zm70.77,35.35c-.07,.13-.31,.32-.76,.16-.35-.13-.46-.31-.45-.53,.02-.24,4.98-14.88,4.95-31.69-.06-18.12-7.42-29.23-16.87-29.23-5.77,0-9.88,4.12-9.88,10.29,0,11.12,13.58,11.94,13.58,36.23,0,9.88-2.06,19.33-5.35,29.64-15.23,51.45-63.81,75.32-111.14,75.32-21.82,0-37.33-4.48-41.95-6.55-.19-.09-.34-.46-.2-.82,.11-.29,.43-.5,.6-.42,1.88,.74,15.19,4.92,31.65,4.92,18.11,0,28.82-7.4,28.82-16.48,0-5.75-4.53-10.28-10.3-10.28-11.11,0-11.94,13.99-35.81,13.99-10.29,0-19.34-2.05-30.05-5.35-51.04-15.64-75.37-63.81-75.33-111.56,.02-23.25,6.53-41.77,6.64-41.95,.08-.12,.37-.25,.73-.12,.37,.12,.47,.44,.43,.53-.6,1.93-4.92,15.2-4.92,31.66,0,18.12,7.41,28.82,16.87,28.82,5.35,0,9.88-4.12,9.88-9.87,0-11.12-13.58-12.35-13.58-36.23,0-10.3,2.06-19.35,5.35-30.05,15.64-51.04,63.8-74.97,111.15-75.33,22-.17,41.26,6.41,41.98,6.99,.13,.11,.27,.4,.13,.74-.15,.38-.41,.43-.54,.41-.23-.03-12.75-5.26-31.7-5.26-17.69,0-28.8,7.4-28.8,16.88,0,5.35,4.11,9.87,10.28,9.87,11.12,0,11.95-13.58,35.81-13.58,10.3,0,19.34,2.06,30.05,5.35,51.47,15.64,74.89,64.22,75.33,111.14,.23,24.04-6.55,42.24-6.61,42.36Zm-125.92-183.97c-78.21,0-141.62,63.4-141.62,141.6s63.4,141.6,141.62,141.6,141.59-63.38,141.59-141.6-63.38-141.6-141.59-141.6Zm0,290.21c-81.92,0-148.61-66.27-148.61-148.6s66.68-148.6,148.61-148.6,148.6,66.68,148.6,148.6-66.7,148.6-148.6,148.6Zm471.28,187.9c-2.66-1.77-6.2-1.24-7.97,1.42-4.78,6.91-10.8,10.27-19.48,10.27-12.75,0-19.48-6.55-19.48-18.42v-1.59l25.32-10.8c19.48-8.32,26.74-13.81,26.74-29.04s-11.87-24.62-30.64-24.62-33.47,12.4-33.47,29.57v36.48c0,17.89,12.22,29.57,31.52,29.57,12.4,0,23.2-4.78,28.69-14.52,1.77-3.01,1.42-6.55-1.24-8.32Zm-46.93-43.21c0-10.8,9.03-18.42,21.61-18.42,11.51,0,18.06,5.31,18.06,14.52,0,8.32-7.08,12.93-18.06,17.71l-21.61,9.21v-23.02Zm-31.52-28.69c-17.71,0-30.11,12.93-30.11,32.41v55.43c0,3.36,2.48,6.02,6.02,6.02s6.02-2.66,6.02-6.02v-55.43c0-11.87,6.2-20.72,18.24-20.72,1.95,0,4.96,.71,6.55,.71,3.19,0,5.67-2.13,5.67-5.67,0-2.66-1.59-4.96-4.96-5.84-2.48-.71-4.96-.89-7.44-.89Zm-81.24-.89c-12.4,0-23.2,4.78-28.69,14.52-1.77,3.01-1.42,6.55,1.24,8.32,2.66,1.77,6.2,1.24,7.97-1.42,4.78-6.91,10.8-10.27,19.48-10.27,12.75,0,19.48,6.55,19.48,18.42v1.59l-25.32,10.8c-19.48,8.32-26.74,13.81-26.74,29.04s11.87,24.62,30.64,24.62,33.47-12.4,33.47-29.57v-36.48c0-17.89-12.22-29.57-31.52-29.57Zm19.48,66.06c0,10.8-9.03,18.42-21.61,18.42-11.51,0-18.06-5.31-18.06-14.52,0-8.32,7.08-12.93,18.06-17.71l21.61-9.21v23.02Zm-128.75-12.04v-40.73c0-17,12.57-30.11,28.69-30.11,12.22,0,21.25,5.31,26.39,15.23,1.42,2.83,4.78,4.07,7.79,2.66,2.83-1.42,3.9-4.78,2.48-7.62-6.73-13.99-19.83-21.78-36.66-21.78-23.2,0-41.26,18.06-41.26,41.62v40.73c0,23.55,18.06,41.62,41.26,41.62,16.82,0,29.93-7.79,36.66-21.78,1.42-2.83,.35-6.2-2.48-7.62-3.01-1.42-6.38-.18-7.79,2.66-5.14,9.92-14.17,15.23-26.39,15.23-16.12,0-28.69-13.1-28.69-30.11Zm-97.46,35.62c0,2.46,2.48,5.11,6.02,5.11s6.02-2.66,6.02-6.02v-55.23c0-11.87,9.56-21.43,21.43-21.43s21.43,9.56,21.43,21.43v55.23c0,3.36,2.48,6.02,6.02,6.02s6.02-2.66,6.02-6.02v-55.23c0-17.89-14.17-32.59-31.88-32.59-9.03,0-17.18,3.9-23.02,10.09v-32.43c0-3.36-2.48-6.02-6.02-6.02s-6.02,2.66-6.02,6.93v110.15Zm-39.31-87.86v-23.2c0-3.36-2.48-6.02-6.02-6.02s-6.02,2.66-6.02,6.02v23.2h-14.7c-3.19,0-5.49,2.3-5.49,5.67,0,3.19,2.3,5.49,5.49,5.49h14.7v49.41c0,9.03,3.01,17.36,8.5,23.38,6.02,6.55,13.64,9.03,23.02,9.03,3.9,0,6.38-3.01,6.2-6.2-.18-3.19-2.83-5.31-6.02-5.31-13.28,0-19.66-8.85-19.66-20.9v-49.41h20.19c3.19,0,5.49-2.3,5.49-5.67,0-3.19-2.3-5.49-5.49-5.49h-20.19Zm-28.33,88.37c.18-3.19-2.3-5.67-5.49-6.02-7.26-.71-11.33-5.14-11.33-13.46v-92.09c0-3.36-2.48-6.02-6.02-6.02s-6.02,2.66-6.02,6.02v92.09c0,6.73,1.95,12.57,5.49,16.82,4.07,5.14,9.92,8.15,17.18,8.15,3.54,0,6.02-2.48,6.2-5.49Zm-81.08-90.14c-12.4,0-23.2,4.78-28.69,14.52-1.77,3.01-1.42,6.55,1.24,8.32,2.66,1.77,6.2,1.24,7.97-1.42,4.78-6.91,10.8-10.27,19.48-10.27,12.75,0,19.48,6.55,19.48,18.42v1.59l-25.32,10.8c-19.48,8.32-26.74,13.81-26.74,29.04s11.87,24.62,30.64,24.62,33.47-12.4,33.47-29.57v-36.48c0-17.89-12.22-29.57-31.52-29.57Zm19.48,66.06c0,10.8-9.03,18.42-21.61,18.42-11.51,0-18.06-5.31-18.06-14.52,0-8.32,7.08-12.93,18.06-17.71l21.61-9.21v23.02Zm-91.2-12.4c19.48-8.32,26.74-13.81,26.74-29.04s-11.87-24.62-30.64-24.62-33.47,12.4-33.47,29.57v36.48c0,17.89,12.22,29.57,31.52,29.57,12.4,0,23.2-4.78,28.69-14.52,1.77-3.01,1.42-6.55-1.24-8.32-2.66-1.77-6.2-1.24-7.97,1.42-4.78,6.91-10.8,10.27-19.48,10.27-12.75,0-19.48-6.55-19.48-18.42v-1.59l25.32-10.8Zm-25.32-24.08c0-10.8,9.03-18.42,21.61-18.42,11.51,0,18.06,5.31,18.06,14.52,0,8.32-7.08,12.93-18.06,17.71l-21.61,9.21v-23.02Zm-33.27,58.8v-109.44c0-3.72-2.48-6.38-6.38-6.38s-6.38,2.66-6.38,6.38v47.28h-55.9v-47.28c0-3.72-2.48-6.38-6.38-6.38s-6.38,2.66-6.38,6.38v109.44c0,3.54,2.66,6.38,6.38,6.38s6.38-2.66,6.38-6.38v-51h55.9v51c0,3.72,2.48,6.38,6.38,6.38s6.38-2.66,6.38-6.38Zm-134.61,5.49c3.19,0,5.49-2.3,5.49-5.49,0-3.36-2.3-5.67-5.49-5.67h-51.98v-45.34h47.73c3.19,0,5.49-2.3,5.49-5.49,0-3.36-2.3-5.67-5.49-5.67h-47.73v-41.62h51.98c3.19,0,5.49-2.3,5.49-5.67,0-3.19-2.3-5.49-5.49-5.49h-58.18c-3.72,0-6.2,2.66-6.2,6.2v108.03c0,3.54,2.48,6.2,6.2,6.2h58.18Zm-86.51-39.85v-19.13c0-3.54-2.48-6.2-6.2-6.2h-33.47c-3.19,0-5.49,2.3-5.49,5.49,0,3.36,2.3,5.67,5.49,5.67h27.27v14.17c0,16.65-12.75,30.11-28.16,30.11s-27.98-13.28-27.98-30.11v-40.73c0-17,12.04-30.11,27.63-30.11,11.87,0,20.37,5.31,25.5,15.23,1.42,2.83,4.78,4.07,7.79,2.66,2.83-1.42,3.9-4.78,2.48-7.62-6.73-13.99-19.3-21.78-35.77-21.78-22.67,0-40.2,18.06-40.2,41.62v40.73c0,23.38,17.71,41.62,40.55,41.62s40.55-18.95,40.55-41.62Z"/></svg>